<svg width="30" height="40" viewBox="0 0 30 40" fill="none" xmlns="http://www.w3.org/2000/svg">
<path d="M26 9H4C2.34315 9 1 10.3431 1 12V36C1 37.6569 2.34315 39 4 39H26C27.6569 39 29 37.6569 29 36V12C29 10.3431 27.6569 9 26 9Z" stroke="black" stroke-linejoin="round"/>
<path d="M21 15V7C21 5.4087 20.3679 3.88258 19.2426 2.75736C18.1174 1.63214 16.5913 1 15 1C13.4087 1 11.8826 1.63214 10.7574 2.75736C9.63214 3.88258 9 5.4087 9 7V15" stroke="black" stroke-linecap="round" stroke-linejoin="round"/>
</svg>
