<svg width="45" height="45" viewBox="0 0 45 45" fill="none" xmlns="http://www.w3.org/2000/svg">
<circle cx="22.5" cy="22.5" r="22.5" fill="white"/>
<path d="M17.2387 12.2387C17.3142 12.163 17.4038 12.103 17.5025 12.062C17.6013 12.0211 17.7071 12 17.814 12C17.9208 12 18.0266 12.0211 18.1254 12.062C18.2241 12.103 18.3137 12.163 18.3892 12.2387L28.1392 21.9887C28.2149 22.0642 28.2749 22.1538 28.3159 22.2525C28.3568 22.3513 28.3779 22.4571 28.3779 22.564C28.3779 22.6708 28.3568 22.7766 28.3159 22.8754C28.2749 22.9741 28.2149 23.0637 28.1392 23.1392L18.3892 32.8892C18.2366 33.0418 18.0297 33.1275 17.814 33.1275C17.5982 33.1275 17.3913 33.0418 17.2387 32.8892C17.0861 32.7366 17.0004 32.5297 17.0004 32.314C17.0004 32.0982 17.0861 31.8913 17.2387 31.7387L26.4151 22.564L17.2387 13.3892C17.163 13.3137 17.103 13.2241 17.062 13.1254C17.0211 13.0266 17 12.9208 17 12.814C17 12.7071 17.0211 12.6013 17.062 12.5025C17.103 12.4038 17.163 12.3142 17.2387 12.2387Z" fill="black"/>
</svg>
